<svg version="1.0" xmlns="http://www.w3.org/2000/svg" width="200pt" height="200pt" viewBox="0 0 200 200">
  <g transform="translate(0,200) scale(0.1,-0.1)" fill="#589347" stroke="none">
    <path d="M895 1892 c-72 -14 -73 -112 -1 -190 78 -87 191 -61 250 55 21 42 21 99 0 107 -50 19 -95 -12 -109 -74 -14 -65 -45 -44 -45 31 0 26 -6 51 -12 56 -16 13 -57 20 -83 15z"/>
    <path d="M978 1573 c-9 -10 -30 -47 -47 -82 -36 -75 -57 -101 -83 -101 -30 0 -22 45 16 87 38 43 60 82 52 91 -17 16 -272 -183 -393 -306 -180 -184 -263 -350 -263 -527 0 -373 300 -626 740 -626 440 0 739 253 740 626 0 45 -7 107 -15 139 -35 132 -152 306 -297 441 -130 121 -344 273 -360 257 -5 -5 -3 -23 3 -41 6 -17 8 -35 5 -39 -14 -13 -41 16 -54 56 -15 47 -22 50 -44 25z m52 -507 c0 -19 6 -24 34 -29 40 -6 136 -47 136 -57 0 -4 -11 -28 -25 -53 l-25 -45 -57 24 c-32 12 -59 22 -60 21 -1 -2 1 -28 4 -60 4 -43 10 -57 22 -57 9 0 44 -13 78 -30 95 -44 124 -110 89 -195 -18 -41 -85 -92 -135 -101 -49 -9 -61 -21 -61 -60 0 -34 -1 -34 -44 -34 l-45 0 -3 42 -3 42 -57 12 c-55 13 -158 58 -158 70 0 6 62 94 66 94 1 0 31 -13 66 -30 34 -16 69 -30 76 -30 8 0 12 18 12 58 l0 57 -62 18 c-44 13 -73 29 -100 56 -33 34 -38 45 -38 85 0 26 7 60 15 76 21 41 78 81 133 95 36 9 48 17 50 34 3 18 10 21 48 21 40 0 44 -2 44 -24z"/>
    <path d="M896 914 c-21 -20 -20 -30 4 -54 30 -30 40 -24 40 25 0 49 -15 59 -44 29z"/>
    <path d="M1038 631 c-2 -40 0 -48 12 -43 43 15 54 54 23 78 -28 21 -31 17 -35 -35z"/>
  </g>
</svg>
